<?xml version="1.0" encoding="UTF-8" standalone="no"?>
<!-- Created with Inkscape (http://www.inkscape.org/) -->

<svg
   xmlns:dc="http://purl.org/dc/elements/1.1/"
   xmlns:cc="http://creativecommons.org/ns#"
   xmlns:rdf="http://www.w3.org/1999/02/22-rdf-syntax-ns#"
   xmlns:svg="http://www.w3.org/2000/svg"
   xmlns="http://www.w3.org/2000/svg"
   xmlns:sodipodi="http://sodipodi.sourceforge.net/DTD/sodipodi-0.dtd"
   xmlns:inkscape="http://www.inkscape.org/namespaces/inkscape"
   id="svg2837"
   version="1.1"
   inkscape:version="0.46+devel r21714"
   width="703.35748"
   height="162.64807"
   xml:space="preserve"
   sodipodi:docname="Meredith_Corporation.eps"
   inkscape:output_extension="org.inkscape.output.svg.inkscape"><metadata
     id="metadata2843"><rdf:RDF><cc:Work
         rdf:about=""><dc:format>image/svg+xml</dc:format><dc:type
           rdf:resource="http://purl.org/dc/dcmitype/StillImage" /><dc:title></dc:title></cc:Work></rdf:RDF></metadata><defs
     id="defs2841"><inkscape:perspective
       sodipodi:type="inkscape:persp3d"
       inkscape:vp_x="0 : 0.5 : 1"
       inkscape:vp_y="0 : 1000 : 0"
       inkscape:vp_z="1 : 0.5 : 1"
       inkscape:persp3d-origin="0.5 : 0.33333333 : 1"
       id="perspective2845" /><clipPath
       clipPathUnits="userSpaceOnUse"
       id="clipPath2855"><path
         d="M 0,1301.19 0,0 l 5626.86,0 0,1301.19 -5626.86,0 z"
         id="path2857" /></clipPath></defs><sodipodi:namedview
     pagecolor="#ffffff"
     bordercolor="#666666"
     borderopacity="1"
     objecttolerance="10"
     gridtolerance="10"
     guidetolerance="10"
     inkscape:pageopacity="0"
     inkscape:pageshadow="2"
     inkscape:window-width="640"
     inkscape:window-height="484"
     id="namedview2839"
     showgrid="false"
     inkscape:zoom="0.23838384"
     inkscape:cx="382.5"
     inkscape:cy="495"
     inkscape:window-x="304"
     inkscape:window-y="54"
     inkscape:window-maximized="0"
     inkscape:current-layer="g2847" /><g
     id="g2847"
     inkscape:groupmode="layer"
     inkscape:label="ink_ext_XXXXXX"
     transform="matrix(1.25,0,0,-1.25,0,162.64807)"><g
       id="g2849"
       transform="scale(0.1,0.1)"><g
         id="g2851"><g
           id="g2853"
           clip-path="url(#clipPath2855)"><path
             d="m 5453.83,795.84 c 9.32,-5.938 17.81,-12.723 25.44,-21.207 20.36,-22.903 30.53,-53.438 30.53,-92.453 l 0,-290.09 117.06,0 0,326.555 c 0,28.003 -3.4,54.289 -11.88,77.195 -8.49,24.598 -21.2,46.652 -39.02,64.465 -35.61,37.32 -83.96,55.984 -145.04,55.984 -61.08,0 -110.28,-23.75 -146.74,-70.406 l 0,254.467 -117.91,0 0,-708.26 117.91,0 0,290.09 c 0,39.863 10.19,71.25 30.53,93.3 7.64,8.489 16.12,15.27 25.46,20.36 15.25,8.48 34.76,13.574 56.82,13.574 21.2,0 40.71,-5.094 56.84,-13.574"
             style="fill:#7d756a;fill-opacity:1;fill-rule:nonzero;stroke:none"
             id="path2859" /><path
             d="m 5062.78,804.32 0,100.942 -116.19,0 0,195.088 -117.91,0 0,-527.588 c 0,-69.559 20.36,-119.61 61.08,-150.137 36.47,-27.137 94.15,-41.563 173.02,-41.563 l 0,101.778 c -37.3,0 -64.45,5.098 -80.57,15.285 -23.75,15.254 -35.62,44.09 -35.62,86.504 l 0,219.691 116.19,0"
             style="fill:#7d756a;fill-opacity:1;fill-rule:nonzero;stroke:none"
             id="path2861" /><path
             d="m 4570.83,984.992 116.199,0 0,115.359 -116.199,0 0,-115.359 z"
             style="fill:#7d756a;fill-opacity:1;fill-rule:nonzero;stroke:none"
             id="path2863" /><path
             d="m 4314.67,649.949 0,-2.539 c 0,-47.508 -15.29,-87.371 -44.96,-118.758 -28.84,-29.687 -63.63,-44.953 -104.34,-44.953 -41.55,0 -75.48,14.426 -103.49,44.102 -28.83,31.379 -44.09,71.25 -44.09,119.609 l 0,2.539 c 0,49.196 14.42,89.059 44.09,119.594 9.34,11.031 20.37,19.512 32.25,26.297 20.35,11.875 44.96,17.816 71.24,17.816 26.3,0 50.06,-5.941 70.41,-17.816 11.87,-7.629 22.9,-16.121 33.93,-27.145 29.67,-31.383 44.96,-71.254 44.96,-118.746 z m -2.55,450.401 0,-253.612 c -39.86,45.801 -97.55,69.551 -174.74,69.551 -64.45,0 -119.59,-23.75 -164.55,-69.551 -15.27,-16.121 -28,-33.082 -38.17,-50.898 -23.75,-41.563 -35.63,-89.914 -35.63,-145.891 l 0,-2.539 c 0,-80.586 24.6,-146.746 73.8,-196.797 44.96,-45.801 100.1,-69.551 164.55,-69.551 70.4,0 128.08,23.75 174.74,69.551 l 0,-58.523 117.9,0 0,708.26 -117.9,0"
             style="fill:#7d756a;fill-opacity:1;fill-rule:nonzero;stroke:none"
             id="path2865" /><path
             d="m 4570.83,392.09 117.059,0 0,513.172 -117.059,0 0,-513.172 z"
             style="fill:#7d756a;fill-opacity:1;fill-rule:nonzero;stroke:none"
             id="path2867" /><path
             d="m 3661.53,795.84 16.12,-15.266 c 22.06,-24.605 34.78,-56.832 39.02,-95.855 l -263.8,0 c 5.94,39.871 20.36,72.949 44.11,97.551 l 15.27,13.57 c 20.35,16.117 45.81,23.75 73.79,23.75 29.68,0 55.14,-7.633 75.49,-23.75 z m 135.73,0 c -8.49,12.722 -16.97,25.441 -26.31,37.324 -44.1,55.137 -106.03,83.125 -184.07,83.125 -72.09,0 -132.31,-26.297 -179.81,-78.887 -11.88,-13.57 -22.91,-27.14 -31.39,-41.562 -26.29,-43.262 -39.02,-91.61 -39.02,-147.59 l 0,-1.699 c 0,-78.035 25.45,-142.5 75.5,-192.539 50.05,-49.2 111.96,-73.797 187.45,-73.797 86.52,0 156.92,32.234 210.37,96.699 l -69.56,61.063 c -41.57,-40.711 -87.37,-61.063 -138.26,-61.063 -39.02,0 -71.25,11.024 -97.54,33.926 -28,22.898 -44.11,55.137 -50.9,95.848 l 377.46,0 1.7,33.085 c 0,60.215 -11.87,111.957 -35.62,156.067"
             style="fill:#7d756a;fill-opacity:1;fill-rule:nonzero;stroke:none"
             id="path2869" /><path
             d="m 3271.36,794.141 25.45,0 0,120.449 c -85.68,0 -145.9,-30.535 -182.37,-92.453 l 0,83.125 -117.07,0 0,-513.172 117.07,0 0,240.898 c 0,49.192 13.57,88.207 40.71,116.2 27.14,29.687 66.16,44.953 116.21,44.953"
             style="fill:#7d756a;fill-opacity:1;fill-rule:nonzero;stroke:none"
             id="path2871" /><path
             d="m 2651.3,819.59 c 29.69,0 55.14,-7.633 76.35,-23.75 l 15.26,-15.266 c 22.06,-23.754 34.78,-55.984 39.02,-95.855 l -262.95,0 c 5.09,39.871 19.52,72.949 43.26,97.551 l 15.26,13.57 c 21.21,16.117 45.82,23.75 73.8,23.75 z m 211.22,-23.75 c -7.64,12.722 -16.13,25.441 -25.45,37.324 -44.96,55.137 -106.03,83.125 -184.07,83.125 -72.95,0 -132.31,-26.297 -180.67,-78.887 -11.87,-13.57 -22.06,-27.14 -31.38,-41.562 -25.45,-43.262 -39.03,-91.61 -39.03,-147.59 l 0,-1.699 c 0,-78.035 25.46,-142.5 76.35,-192.539 49.2,-49.2 111.96,-73.797 187.46,-73.797 86.52,0 156.07,32.234 209.51,96.699 l -68.71,61.063 c -41.56,-40.711 -88.22,-61.063 -139.11,-61.063 -39.02,0 -71.25,11.024 -97.55,33.926 -27.14,22.898 -44.1,55.137 -50.04,95.848 l 376.62,0 2.53,33.085 c 0,60.215 -11.87,111.957 -36.46,156.067"
             style="fill:#7d756a;fill-opacity:1;fill-rule:nonzero;stroke:none"
             id="path2873" /><path
             d="m 2309.47,719.504 c 0,27.984 -4.24,53.43 -12.72,76.336 -8.48,23.75 -22.9,45.805 -40.71,65.316 -36.48,36.469 -82.28,55.133 -138.27,55.133 -71.25,0 -125.53,-30.539 -162.01,-90.762 -32.22,60.223 -84.82,90.762 -157.76,90.762 -39.02,0 -75.5,-11.027 -108.58,-33.926 -15.26,-10.183 -29.68,-22.906 -42.41,-38.175 l 0,61.074 -117.9,0 0,-513.172 117.9,0 0,290.09 c 0,39.863 9.33,71.25 28.84,93.3 6.79,8.489 14.42,15.27 23.75,20.36 15.27,8.48 33.08,13.574 54.29,13.574 20.35,0 39.02,-5.094 54.29,-13.574 8.48,-5.09 16.11,-11.871 22.9,-20.36 19.51,-22.05 29.69,-53.437 29.69,-93.3 l 0,-290.09 117.05,0 0,290.09 c 0,39.863 10.18,71.25 29.68,94.152 6.8,7.637 14.43,14.418 23.76,19.508 15.26,8.48 33.08,13.574 53.43,13.574 21.21,0 39.88,-5.094 55.14,-13.574 8.48,-5.938 16.12,-12.723 23.75,-20.36 18.66,-22.902 28.84,-53.437 28.84,-93.3 l 0,-290.09 117.05,0 0,327.414"
             style="fill:#7d756a;fill-opacity:1;fill-rule:nonzero;stroke:none"
             id="path2875" /><path
             d="m 1089.99,964.422 c 24.59,-1.699 44.95,-11.031 62.76,-27.992 19.52,-19.512 28.84,-42.414 28,-69.555 -1.7,-24.598 -10.18,-45.809 -28,-63.613 l -68.7,-67.864 84.82,-84.824 68.7,67.864 c 42.42,42.414 63.62,93.304 62.78,153.523 0,57.687 -21.21,107.73 -62.78,149.289 -43.25,42.41 -94.15,62.77 -155.22,62.77 2.54,58.53 -17.81,110.27 -61.92,154.38 -41.563,40.71 -90.758,61.91 -149.282,62.76 -60.226,0.85 -111.121,-20.36 -153.531,-62.76 l -67.851,-67.86 84.812,-84.83 67.863,67.86 c 18.657,18.66 40.711,27.99 67.008,27.99 25.449,0 47.504,-9.33 66.16,-27.99 18.664,-18.66 27.996,-41.56 27.145,-67.86 0,-24.59 -9.332,-46.64 -27.145,-64.46 l -67.859,-67.859 84.824,-84.825 67.856,67.864 c 19.51,19.511 43.26,28.836 69.56,27.992"
             style="fill:#2982be;fill-opacity:1;fill-rule:nonzero;stroke:none"
             id="path2877" /><path
             d="M 867.75,953.391 734.578,1085.71 649.766,1000.9 782.93,868.566 l 84.82,84.825"
             style="fill:#e13348;fill-opacity:1;fill-rule:nonzero;stroke:none"
             id="path2879" /><path
             d="M 867.75,518.262 734.578,650.574 649.766,565.75 782.93,433.438 l 84.82,84.824"
             style="fill:#88ad6e;fill-opacity:1;fill-rule:nonzero;stroke:none"
             id="path2881" /><path
             d="M 1000.08,650.574 867.75,518.262 952.574,433.438 1084.05,565.75 1000.08,650.574"
             style="fill:#2982be;fill-opacity:1;fill-rule:nonzero;stroke:none"
             id="path2883" /><path
             d="m 867.75,783.754 132.33,-133.18 83.97,84.824 -131.476,133.168 -84.824,-84.812"
             style="fill:#88ad6e;fill-opacity:1;fill-rule:nonzero;stroke:none"
             id="path2885" /><path
             d="M 734.578,650.574 867.75,783.754 782.93,868.566 649.766,735.398 734.578,650.574"
             style="fill:#2982be;fill-opacity:1;fill-rule:nonzero;stroke:none"
             id="path2887" /><path
             d="m 867.75,783.754 84.824,84.812 -84.824,84.825 -84.82,-84.825 84.82,-84.812"
             style="fill:#5c5557;fill-opacity:1;fill-rule:nonzero;stroke:none"
             id="path2889" /><path
             d="m 1084.05,565.75 68.7,-67.852 c 17.82,-16.96 26.3,-38.164 28,-63.621 0.84,-26.281 -8.48,-49.179 -28,-68.703 -17.81,-16.961 -38.17,-26.289 -62.76,-27.996 -26.3,-0.851 -50.05,7.645 -69.56,27.996 l -67.856,67.864 -84.824,-84.825 67.859,-67.851 c 17.813,-17.813 27.145,-39.864 27.145,-65.313 0.851,-25.437 -8.481,-48.347 -27.145,-67.847 -18.656,-17.84 -40.711,-27.161 -66.16,-27.161 -26.297,0 -48.351,9.321 -67.008,27.161 l -67.863,68.699 -84.812,-85.672 67.851,-67.0196 C 760.027,20.3594 810.922,0 871.148,0.851562 929.672,1.69141 978.867,22.0508 1020.43,63.6094 c 44.11,43.2616 64.46,94.9996 61.92,154.3786 61.07,-0.847 111.97,20.364 155.22,62.774 41.57,41.562 62.78,91.609 62.78,149.277 0.84,59.375 -20.36,110.262 -62.78,152.684 l -68.7,67.851 -84.82,-84.824"
             style="fill:#88ad6e;fill-opacity:1;fill-rule:nonzero;stroke:none"
             id="path2891" /><path
             d="m 1084.05,565.75 84.82,84.824 -84.82,84.824 -83.97,-84.824 83.97,-84.824"
             style="fill:#497167;fill-opacity:1;fill-rule:nonzero;stroke:none"
             id="path2893" /><path
             d="M 565.785,1085.71 432.613,953.391 517.438,868.566 649.766,1000.9 565.785,1085.71"
             style="fill:#2982be;fill-opacity:1;fill-rule:nonzero;stroke:none"
             id="path2895" /><path
             d="m 497.934,1153.57 67.851,-67.86 83.981,84.83 -67.016,67.86 c -43.258,42.4 -94.152,63.61 -153.527,62.76 -57.68,0 -107.723,-22.05 -149.285,-62.76 -42.411,-42.42 -63.614,-94.16 -62.77,-154.38 -59.371,1.69 -111.113,-18.66 -155.2305,-62.77 C 22.0742,980.535 0.875,930.492 0.0234375,871.961 -0.824219,812.586 20.3828,760.852 61.9375,718.438 l 68.7105,-67.864 84.821,84.824 -67.852,67.864 c -18.664,18.66 -27.992,41.562 -27.992,67.004 0,26.3 9.328,47.507 27.992,66.164 18.66,18.66 41.563,27.992 67.852,27.144 24.597,0 46.648,-9.332 64.469,-27.144 l 67.859,-67.864 84.816,84.825 -67.851,67.859 c -19.512,19.51 -28.844,43.26 -27.992,69.55 1.691,25.45 11.027,45.81 27.992,62.77 19.508,19.51 42.406,27.99 69.55,27.99 24.598,-0.85 45.805,-10.17 63.622,-27.99"
             style="fill:#e13348;fill-opacity:1;fill-rule:nonzero;stroke:none"
             id="path2897" /><path
             d="m 565.785,1085.71 83.981,-84.81 84.812,84.81 -84.812,84.83 -83.981,-84.83"
             style="fill:#6e5d63;fill-opacity:1;fill-rule:nonzero;stroke:none"
             id="path2899" /><path
             d="M 130.648,650.574 61.9375,582.723 C 20.3828,540.301 -0.824219,489.414 0.0234375,430.039 0.875,371.504 22.0742,321.484 61.9375,280.762 106.055,236.66 157.797,215.449 217.168,217.988 216.324,157.762 237.527,106.02 279.938,63.6094 321.5,22.0508 371.543,0.851562 429.223,0 488.598,0 539.492,20.3594 582.75,63.6094 l 67.016,67.0196 -83.981,85.672 -67.851,-68.699 c -17.817,-16.973 -39.024,-26.313 -63.622,-27.161 -27.144,-0.851 -50.042,8.481 -69.55,27.161 -16.965,17.796 -26.301,38.16 -27.992,62.75 -0.852,27.148 8.48,50.039 27.992,70.41 l 0,0 67.851,67.851 -84.816,84.825 -67.859,-67.864 c -17.821,-17.801 -39.872,-27.129 -64.469,-27.996 -26.289,0 -49.192,8.484 -67.852,27.996 -18.664,17.813 -27.992,39.875 -27.992,66.172 0,25.442 9.328,47.5 27.992,66.152 l 67.852,67.852 -84.821,84.824"
             style="fill:#f2962a;fill-opacity:1;fill-rule:nonzero;stroke:none"
             id="path2901" /><path
             d="m 215.469,565.75 84.824,84.824 -84.824,84.824 -84.821,-84.824 84.821,-84.824"
             style="fill:#be5547;fill-opacity:1;fill-rule:nonzero;stroke:none"
             id="path2903" /><path
             d="m 300.293,650.574 -84.824,-84.824 132.328,-132.312 74.637,73.789 10.179,11.035 -132.32,132.312"
             style="fill:#e13348;fill-opacity:1;fill-rule:nonzero;stroke:none"
             id="path2905" /><path
             d="m 215.469,735.398 84.824,-84.824 132.32,133.18 -84.816,84.812 -132.328,-133.168"
             style="fill:#f2962a;fill-opacity:1;fill-rule:nonzero;stroke:none"
             id="path2907" /><path
             d="m 649.766,735.398 -132.328,133.168 -84.825,-84.812 133.172,-133.18 83.981,84.824"
             style="fill:#e13348;fill-opacity:1;fill-rule:nonzero;stroke:none"
             id="path2909" /><path
             d="m 347.797,868.566 84.816,-84.812 84.825,84.812 -84.825,84.825 -84.816,-84.825"
             style="fill:#6f5d59;fill-opacity:1;fill-rule:nonzero;stroke:none"
             id="path2911" /><path
             d="m 432.613,518.262 0,0 0,0 0,0 z"
             style="fill:#ed1248;fill-opacity:1;fill-rule:nonzero;stroke:none"
             id="path2913" /><path
             d="m 432.613,518.262 -10.179,-11.035 -74.637,-73.789 84.816,-84.825 84.825,84.825 -84.825,84.824"
             style="fill:#8e6258;fill-opacity:1;fill-rule:nonzero;stroke:none"
             id="path2915" /><path
             d="m 565.785,650.574 83.981,-84.824 84.812,84.824 -84.812,84.824 -83.981,-84.824"
             style="fill:#5c5557;fill-opacity:1;fill-rule:nonzero;stroke:none"
             id="path2917" /><path
             d="M 649.766,565.75 565.785,650.574 432.613,518.262 517.438,433.438 649.766,565.75"
             style="fill:#f2962a;fill-opacity:1;fill-rule:nonzero;stroke:none"
             id="path2919" /><path
             d="m 649.766,301.121 -132.328,132.317 -84.825,-84.825 133.172,-132.312 83.981,84.82"
             style="fill:#88ad6e;fill-opacity:1;fill-rule:nonzero;stroke:none"
             id="path2921" /><path
             d="m 565.785,216.301 83.981,-85.672 84.812,85.672 -84.812,84.82 -83.981,-84.82"
             style="fill:#8b876a;fill-opacity:1;fill-rule:nonzero;stroke:none"
             id="path2923" /><path
             d="m 867.75,348.613 84.824,84.825 -84.824,84.824 -84.82,-84.824 84.82,-84.825"
             style="fill:#5a6b68;fill-opacity:1;fill-rule:nonzero;stroke:none"
             id="path2925" /><path
             d="M 734.578,216.301 867.75,348.613 782.93,433.438 649.766,301.121 734.578,216.301"
             style="fill:#f2962a;fill-opacity:1;fill-rule:nonzero;stroke:none"
             id="path2927" /></g></g></g></g></svg>